<mxfile host="app.diagrams.net" modified="2021-08-24T07:44:47.944Z" agent="5.0 (Windows NT 10.0; Win64; x64) AppleWebKit/537.36 (KHTML, like Gecko) Chrome/92.0.4515.159 Safari/537.36" etag="fbQITJ981CzE3L9atf3i" version="14.9.5" type="github">
  <diagram id="sF6BQM9Wy50Gwo7xyH-N" name="Page-1">
    <mxGraphModel dx="1278" dy="579" grid="1" gridSize="10" guides="1" tooltips="1" connect="1" arrows="1" fold="1" page="1" pageScale="1" pageWidth="850" pageHeight="1100" math="0" shadow="0">
      <root>
        <mxCell id="0" />
        <mxCell id="1" parent="0" />
        <mxCell id="tr77sJXjhqPCKRmZni4F-13" style="edgeStyle=orthogonalEdgeStyle;rounded=0;orthogonalLoop=1;jettySize=auto;html=1;exitX=0.5;exitY=1;exitDx=0;exitDy=0;entryX=0.5;entryY=0;entryDx=0;entryDy=0;" edge="1" parent="1" source="tr77sJXjhqPCKRmZni4F-1" target="tr77sJXjhqPCKRmZni4F-3">
          <mxGeometry relative="1" as="geometry" />
        </mxCell>
        <mxCell id="tr77sJXjhqPCKRmZni4F-14" style="edgeStyle=orthogonalEdgeStyle;rounded=0;orthogonalLoop=1;jettySize=auto;html=1;exitX=0.5;exitY=1;exitDx=0;exitDy=0;entryX=0.5;entryY=0;entryDx=0;entryDy=0;" edge="1" parent="1" source="tr77sJXjhqPCKRmZni4F-1" target="tr77sJXjhqPCKRmZni4F-2">
          <mxGeometry relative="1" as="geometry" />
        </mxCell>
        <mxCell id="tr77sJXjhqPCKRmZni4F-1" value="Parent Process" style="rounded=1;whiteSpace=wrap;html=1;" vertex="1" parent="1">
          <mxGeometry x="160" y="110" width="120" height="60" as="geometry" />
        </mxCell>
        <mxCell id="tr77sJXjhqPCKRmZni4F-15" style="edgeStyle=orthogonalEdgeStyle;rounded=0;orthogonalLoop=1;jettySize=auto;html=1;exitX=0.5;exitY=1;exitDx=0;exitDy=0;entryX=0.5;entryY=0;entryDx=0;entryDy=0;" edge="1" parent="1" source="tr77sJXjhqPCKRmZni4F-2" target="tr77sJXjhqPCKRmZni4F-5">
          <mxGeometry relative="1" as="geometry" />
        </mxCell>
        <mxCell id="tr77sJXjhqPCKRmZni4F-16" style="edgeStyle=orthogonalEdgeStyle;rounded=0;orthogonalLoop=1;jettySize=auto;html=1;exitX=0.5;exitY=1;exitDx=0;exitDy=0;entryX=0.5;entryY=0;entryDx=0;entryDy=0;" edge="1" parent="1" source="tr77sJXjhqPCKRmZni4F-2" target="tr77sJXjhqPCKRmZni4F-4">
          <mxGeometry relative="1" as="geometry" />
        </mxCell>
        <mxCell id="tr77sJXjhqPCKRmZni4F-2" value="Child Process 1" style="rounded=1;whiteSpace=wrap;html=1;" vertex="1" parent="1">
          <mxGeometry x="480" y="220" width="120" height="60" as="geometry" />
        </mxCell>
        <mxCell id="tr77sJXjhqPCKRmZni4F-18" style="edgeStyle=orthogonalEdgeStyle;rounded=0;orthogonalLoop=1;jettySize=auto;html=1;exitX=0.5;exitY=1;exitDx=0;exitDy=0;entryX=0.5;entryY=0;entryDx=0;entryDy=0;" edge="1" parent="1" source="tr77sJXjhqPCKRmZni4F-3" target="tr77sJXjhqPCKRmZni4F-6">
          <mxGeometry relative="1" as="geometry" />
        </mxCell>
        <mxCell id="tr77sJXjhqPCKRmZni4F-3" value="Child Process 2" style="rounded=1;whiteSpace=wrap;html=1;" vertex="1" parent="1">
          <mxGeometry x="320" y="320" width="120" height="60" as="geometry" />
        </mxCell>
        <mxCell id="tr77sJXjhqPCKRmZni4F-17" style="edgeStyle=orthogonalEdgeStyle;rounded=0;orthogonalLoop=1;jettySize=auto;html=1;exitX=0.5;exitY=1;exitDx=0;exitDy=0;" edge="1" parent="1" source="tr77sJXjhqPCKRmZni4F-4" target="tr77sJXjhqPCKRmZni4F-8">
          <mxGeometry relative="1" as="geometry" />
        </mxCell>
        <mxCell id="tr77sJXjhqPCKRmZni4F-4" value="Child Process 3" style="rounded=1;whiteSpace=wrap;html=1;" vertex="1" parent="1">
          <mxGeometry x="640" y="320" width="120" height="60" as="geometry" />
        </mxCell>
        <mxCell id="tr77sJXjhqPCKRmZni4F-5" value="Child Process 6" style="rounded=1;whiteSpace=wrap;html=1;" vertex="1" parent="1">
          <mxGeometry x="480" y="430" width="120" height="60" as="geometry" />
        </mxCell>
        <mxCell id="tr77sJXjhqPCKRmZni4F-6" value="Child Process 5" style="rounded=1;whiteSpace=wrap;html=1;" vertex="1" parent="1">
          <mxGeometry x="320" y="430" width="120" height="60" as="geometry" />
        </mxCell>
        <mxCell id="tr77sJXjhqPCKRmZni4F-7" value="Child Process 4" style="rounded=1;whiteSpace=wrap;html=1;" vertex="1" parent="1">
          <mxGeometry x="160" y="430" width="120" height="60" as="geometry" />
        </mxCell>
        <mxCell id="tr77sJXjhqPCKRmZni4F-8" value="Child Process 7" style="rounded=1;whiteSpace=wrap;html=1;" vertex="1" parent="1">
          <mxGeometry x="640" y="430" width="120" height="60" as="geometry" />
        </mxCell>
        <mxCell id="tr77sJXjhqPCKRmZni4F-9" value="&lt;font style=&quot;font-size: 18px&quot;&gt;&lt;b&gt;i = 0&lt;/b&gt;&lt;/font&gt;" style="text;html=1;align=center;verticalAlign=middle;resizable=0;points=[];autosize=1;strokeColor=none;" vertex="1" parent="1">
          <mxGeometry x="55" y="130" width="50" height="20" as="geometry" />
        </mxCell>
        <mxCell id="tr77sJXjhqPCKRmZni4F-10" value="&lt;font style=&quot;font-size: 18px&quot;&gt;&lt;b&gt;i = 1&lt;/b&gt;&lt;/font&gt;" style="text;html=1;align=center;verticalAlign=middle;resizable=0;points=[];autosize=1;strokeColor=none;" vertex="1" parent="1">
          <mxGeometry x="55" y="240" width="50" height="20" as="geometry" />
        </mxCell>
        <mxCell id="tr77sJXjhqPCKRmZni4F-11" value="&lt;font style=&quot;font-size: 18px&quot;&gt;&lt;b&gt;i = 2&lt;/b&gt;&lt;/font&gt;" style="text;html=1;align=center;verticalAlign=middle;resizable=0;points=[];autosize=1;strokeColor=none;" vertex="1" parent="1">
          <mxGeometry x="55" y="340" width="50" height="20" as="geometry" />
        </mxCell>
        <mxCell id="tr77sJXjhqPCKRmZni4F-12" value="" style="endArrow=classic;html=1;exitX=0.5;exitY=1;exitDx=0;exitDy=0;entryX=0.5;entryY=0;entryDx=0;entryDy=0;" edge="1" parent="1" source="tr77sJXjhqPCKRmZni4F-1" target="tr77sJXjhqPCKRmZni4F-7">
          <mxGeometry width="50" height="50" relative="1" as="geometry">
            <mxPoint x="400" y="320" as="sourcePoint" />
            <mxPoint x="450" y="270" as="targetPoint" />
          </mxGeometry>
        </mxCell>
      </root>
    </mxGraphModel>
  </diagram>
</mxfile>
